<svg viewBox="0 0 16 16"><path fill="#828282" d="m 13.634,13.633 -2.372,0 0,-3.712 c 0,-0.885 -0.015,-2.024 -1.233,-2.024 -1.234,0 -1.423,0.965 -1.423,1.961 l 0,3.776 -2.370,0 0,-7.635 2.274,0 0,1.043 0.032,0 C 8.858,6.442 9.633,5.809 10.787,5.809 c 2.402,0 2.846,1.580 2.846,3.637 l 0,4.187 z M 3.559,4.955 c -0.762,0 -1.376,-0.616 -1.376,-1.376 0,-0.759 0.614,-1.376 1.376,-1.376 0.759,0 1.375,0.616 1.375,1.376 0,0.759 -0.616,1.376 -1.375,1.376 z m 1.187,8.678 -2.375,0 0,-7.635 2.375,0 z M 14.816,1e-4 1.18,1e-4 C 0.529,1e-4 1e-5,0.516 1e-5,1.153 l 0,13.691 c 0,0.637 0.529,1.154 1.18,1.154 l 13.636,0 C 15.468,16 16,15.482 16,14.845 L 16,1.154 C 16,0.516 15.468,5.874e-4 14.816,5.874e-4"/></svg>
